<?xml version="1.0" encoding="utf-8"?>
<!-- Generator: Adobe Illustrator 21.1.0, SVG Export Plug-In . SVG Version: 6.00 Build 0)  -->
<svg version="1.1" id="Layer_1" xmlns="http://www.w3.org/2000/svg" xmlns:xlink="http://www.w3.org/1999/xlink" x="0px" y="0px"
	 viewBox="0 0 487.3 202.6" style="enable-background:new 0 0 487.3 202.6;" xml:space="preserve">
<style type="text/css">
	.st0{fill:#29B6F6;}
</style>
<g>
	<path d="M136,140.8v19.4h-3.4v-19.4h-5.2v-3.2h13.8v3.2H136z"/>
	<path d="M156.7,140.8h-9.1v5.4h8.8v3.2h-8.8v7.6h9.1v3.2h-12.5v-22.6h12.5V140.8z"/>
	<path d="M177.9,138.8v4c-2-1.7-4-2.5-6.1-2.5c-2.3,0-4.3,0.8-5.9,2.5c-1.6,1.7-2.4,3.7-2.4,6.1c0,2.4,0.8,4.4,2.4,6
		s3.6,2.4,5.9,2.4c1.2,0,2.2-0.2,3.1-0.6c0.5-0.2,1-0.5,1.5-0.8s1-0.7,1.6-1.2v4.1c-2,1.1-4,1.7-6.2,1.7c-3.2,0-6-1.1-8.3-3.4
		c-2.3-2.3-3.4-5-3.4-8.2c0-2.9,1-5.4,2.9-7.7c2.3-2.8,5.4-4.1,9.1-4.1C174,137.1,176,137.7,177.9,138.8z"/>
	<path d="M186.2,146.4h9.8v-8.8h3.4v22.6H196v-10.6h-9.8v10.6h-3.4v-22.6h3.4V146.4z"/>
	<path d="M204.8,160.2V136l16.5,17.3v-15.7h3.4v24l-16.5-17.2v15.8H204.8z"/>
	<path d="M229.2,148.8c0-3.2,1.2-5.9,3.5-8.2c2.3-2.3,5.1-3.4,8.4-3.4c3.2,0,6,1.2,8.3,3.5c2.3,2.3,3.5,5.1,3.5,8.3
		c0,3.3-1.2,6-3.5,8.3c-2.3,2.3-5.2,3.4-8.5,3.4c-2.9,0-5.5-1-7.9-3C230.5,155.3,229.2,152.4,229.2,148.8z M232.7,148.8
		c0,2.5,0.8,4.6,2.5,6.2c1.7,1.6,3.6,2.4,5.8,2.4c2.4,0,4.4-0.8,6-2.5c1.6-1.7,2.4-3.7,2.4-6.1c0-2.4-0.8-4.4-2.4-6.1
		c-1.6-1.6-3.6-2.5-5.9-2.5c-2.4,0-4.3,0.8-6,2.5C233.5,144.4,232.7,146.4,232.7,148.8z"/>
	<path d="M260.6,137.5V157h6.7v3.2h-10.1v-22.6H260.6z"/>
	<path d="M268.4,148.8c0-3.2,1.2-5.9,3.5-8.2c2.3-2.3,5.1-3.4,8.4-3.4c3.2,0,6,1.2,8.3,3.5c2.3,2.3,3.5,5.1,3.5,8.3
		c0,3.3-1.2,6-3.5,8.3c-2.3,2.3-5.2,3.4-8.5,3.4c-2.9,0-5.5-1-7.9-3C269.7,155.3,268.4,152.4,268.4,148.8z M271.9,148.8
		c0,2.5,0.8,4.6,2.5,6.2c1.7,1.6,3.6,2.4,5.8,2.4c2.4,0,4.4-0.8,6-2.5c1.6-1.7,2.4-3.7,2.4-6.1c0-2.4-0.8-4.4-2.4-6.1
		c-1.6-1.6-3.6-2.5-5.9-2.5c-2.4,0-4.3,0.8-6,2.5C272.7,144.4,271.9,146.4,271.9,148.8z"/>
	<path d="M308,148.4h9.3v0.7c0,1.7-0.2,3.2-0.6,4.5c-0.4,1.2-1,2.3-2,3.4c-2.1,2.4-4.8,3.5-8,3.5c-3.2,0-5.9-1.1-8.1-3.4
		c-2.3-2.3-3.4-5-3.4-8.3c0-3.3,1.1-6.1,3.4-8.4c2.3-2.3,5.1-3.4,8.4-3.4c1.8,0,3.4,0.4,5,1.1c1.5,0.7,2.9,1.9,4.3,3.5l-2.4,2.3
		c-1.9-2.5-4.1-3.7-6.8-3.7c-2.4,0-4.4,0.8-6,2.5c-1.6,1.6-2.4,3.7-2.4,6.1c0,2.5,0.9,4.6,2.7,6.2c1.7,1.5,3.5,2.3,5.5,2.3
		c1.7,0,3.2-0.6,4.5-1.7c1.3-1.1,2.1-2.5,2.2-4.1H308V148.4z"/>
	<path d="M325.5,150.4l-7.4-12.8h3.9l5.2,9l5.2-9h3.9l-7.4,12.8v9.8h-3.4V150.4z"/>
	<path d="M359.8,148.4h9.3v0.7c0,1.7-0.2,3.2-0.6,4.5c-0.4,1.2-1,2.3-2,3.4c-2.1,2.4-4.8,3.5-8,3.5c-3.2,0-5.9-1.1-8.1-3.4
		c-2.3-2.3-3.4-5-3.4-8.3c0-3.3,1.1-6.1,3.4-8.4c2.3-2.3,5.1-3.4,8.4-3.4c1.8,0,3.4,0.4,5,1.1c1.5,0.7,2.9,1.9,4.3,3.5l-2.4,2.3
		c-1.9-2.5-4.1-3.7-6.8-3.7c-2.4,0-4.4,0.8-6,2.5c-1.6,1.6-2.4,3.7-2.4,6.1c0,2.5,0.9,4.6,2.7,6.2c1.7,1.5,3.5,2.3,5.5,2.3
		c1.7,0,3.2-0.6,4.5-1.7c1.3-1.1,2.1-2.5,2.2-4.1h-5.6V148.4z"/>
	<path d="M381.1,150.5l7,9.6h-4.2l-6.5-9.3h-0.6v9.3h-3.4v-22.6h4c3,0,5.1,0.6,6.5,1.7c1.5,1.2,2.2,2.9,2.2,5c0,1.6-0.5,3-1.4,4.1
		C383.8,149.5,382.6,150.2,381.1,150.5z M376.8,147.9h1.1c3.2,0,4.8-1.2,4.8-3.7c0-2.3-1.6-3.5-4.7-3.5h-1.2V147.9z"/>
	<path d="M389.8,148.8c0-3.2,1.2-5.9,3.5-8.2c2.3-2.3,5.1-3.4,8.4-3.4c3.2,0,6,1.2,8.3,3.5c2.3,2.3,3.5,5.1,3.5,8.3
		c0,3.3-1.2,6-3.5,8.3c-2.3,2.3-5.2,3.4-8.5,3.4c-2.9,0-5.5-1-7.9-3C391.1,155.3,389.8,152.4,389.8,148.8z M393.3,148.8
		c0,2.5,0.8,4.6,2.5,6.2c1.7,1.6,3.6,2.4,5.8,2.4c2.4,0,4.4-0.8,6-2.5c1.6-1.7,2.4-3.7,2.4-6.1c0-2.4-0.8-4.4-2.4-6.1
		c-1.6-1.6-3.6-2.5-5.9-2.5c-2.4,0-4.3,0.8-6,2.5C394.1,144.4,393.3,146.4,393.3,148.8z"/>
	<path d="M421.2,137.5v13.6c0,1.9,0.3,3.4,1,4.3c0.9,1.3,2.3,1.9,4,1.9c1.7,0,3.1-0.6,4-1.9c0.6-0.9,1-2.3,1-4.3v-13.6h3.4v14.6
		c0,2.4-0.7,4.3-2.2,5.9c-1.7,1.7-3.7,2.6-6.2,2.6s-4.5-0.9-6.1-2.6c-1.5-1.5-2.2-3.5-2.2-5.9v-14.6H421.2z"/>
	<path d="M443.3,151v9.2h-3.4v-22.6h3.9c1.9,0,3.3,0.1,4.3,0.4c1,0.3,1.8,0.8,2.6,1.5c1.3,1.3,1.9,2.9,1.9,4.8
		c0,2.1-0.7,3.7-2.1,4.9c-1.4,1.2-3.3,1.8-5.6,1.8H443.3z M443.3,147.8h1.3c3.1,0,4.7-1.2,4.7-3.6c0-2.3-1.6-3.5-4.8-3.5h-1.1V147.8
		z"/>
</g>
<g>
	<path d="M83.2,124.2H64.6l-14.2-22v22H35.5V66.9h23.2c3.2,0,6,0.5,8.4,1.4c2.4,0.9,4.3,2.2,5.9,3.8c1.5,1.6,2.7,3.5,3.5,5.6
		c0.8,2.1,1.2,4.4,1.2,6.8c0,4.4-1.1,7.9-3.2,10.6c-2.1,2.7-5.2,4.5-9.3,5.5L83.2,124.2z M50.4,92.5h2.8c2.9,0,5.2-0.6,6.8-1.8
		c1.6-1.2,2.4-3,2.4-5.2c0-2.3-0.8-4-2.4-5.2c-1.6-1.2-3.8-1.8-6.8-1.8h-2.8V92.5z"/>
	<path d="M122,79.5h-17.7v9.6H121v12.6h-16.7v9.9H122v12.6H89.4V66.9H122V79.5z"/>
	<path d="M164.2,81.5c-1.6-1.3-3.2-2.3-4.9-2.9c-1.6-0.6-3.2-1-4.7-1c-1.9,0-3.5,0.5-4.7,1.4c-1.2,0.9-1.8,2.1-1.8,3.6
		c0,1,0.3,1.9,0.9,2.5c0.6,0.7,1.4,1.2,2.4,1.7c1,0.5,2.1,0.9,3.3,1.3c1.2,0.4,2.5,0.7,3.7,1.1c4.9,1.6,8.4,3.8,10.7,6.5
		c2.3,2.7,3.4,6.2,3.4,10.6c0,2.9-0.5,5.6-1.5,8c-1,2.4-2.4,4.4-4.3,6.1c-1.9,1.7-4.2,3-7,4c-2.8,0.9-5.9,1.4-9.4,1.4
		c-7.2,0-14-2.2-20.1-6.5l6.4-12c2.2,2,4.4,3.4,6.6,4.4c2.2,1,4.3,1.4,6.5,1.4c2.4,0,4.2-0.6,5.4-1.7c1.2-1.1,1.8-2.4,1.8-3.8
		c0-0.9-0.2-1.6-0.5-2.2c-0.3-0.6-0.8-1.2-1.5-1.7c-0.7-0.5-1.6-1-2.8-1.5c-1.1-0.5-2.5-1-4.1-1.5c-1.9-0.6-3.8-1.3-5.7-2
		c-1.9-0.7-3.5-1.7-4.9-2.9c-1.4-1.2-2.6-2.7-3.5-4.6c-0.9-1.8-1.3-4.2-1.3-7c0-2.8,0.5-5.4,1.4-7.7c0.9-2.3,2.3-4.3,4-5.9
		c1.7-1.6,3.8-2.9,6.2-3.8c2.5-0.9,5.2-1.4,8.2-1.4c2.8,0,5.8,0.4,8.9,1.2c3.1,0.8,6.1,1.9,8.9,3.5L164.2,81.5z"/>
	<path d="M179.2,95.5c0-4.3,0.8-8.2,2.4-11.9c1.6-3.7,3.7-6.9,6.5-9.6c2.8-2.7,6.1-4.9,10-6.4c3.9-1.5,8.1-2.3,12.8-2.3
		c4.6,0,8.9,0.8,12.8,2.3c3.9,1.5,7.3,3.7,10.1,6.4c2.8,2.7,5,5.9,6.6,9.6c1.6,3.7,2.4,7.6,2.4,11.9c0,4.3-0.8,8.2-2.4,11.9
		c-1.6,3.7-3.8,6.9-6.6,9.6c-2.8,2.7-6.2,4.9-10.1,6.4c-3.9,1.5-8.2,2.3-12.8,2.3c-4.7,0-8.9-0.8-12.8-2.3c-3.9-1.5-7.2-3.7-10-6.4
		c-2.8-2.7-5-5.9-6.5-9.6C180,103.7,179.2,99.8,179.2,95.5z M194.8,95.5c0,2.3,0.4,4.4,1.3,6.3c0.9,1.9,2,3.6,3.5,5
		c1.5,1.4,3.2,2.5,5.1,3.3c2,0.8,4,1.2,6.2,1.2c2.2,0,4.2-0.4,6.2-1.2c2-0.8,3.7-1.9,5.2-3.3c1.5-1.4,2.7-3.1,3.5-5
		c0.9-1.9,1.3-4,1.3-6.3c0-2.3-0.4-4.4-1.3-6.3c-0.9-1.9-2-3.6-3.5-5c-1.5-1.4-3.2-2.5-5.2-3.3c-2-0.8-4-1.2-6.2-1.2
		c-2.2,0-4.2,0.4-6.2,1.2c-2,0.8-3.7,1.9-5.1,3.3c-1.5,1.4-2.6,3.1-3.5,5C195.2,91.1,194.8,93.2,194.8,95.5z"/>
	<path d="M252.1,124.2V66.9H267l27.5,35v-35h14.8v57.3h-14.8l-27.5-35v35H252.1z"/>
	<polyline points="360,124.2 375.9,124.2 354.1,66.9 337.8,66.9 316,124.2 331.9,124.2 346,83.8 	"/>
	<path d="M401.7,79.5v44.7h-14.9V79.5h-12.2V66.9h39.4v12.6H401.7z"/>
	<path d="M453.1,79.5h-17.7v9.6h16.7v12.6h-16.7v9.9h17.7v12.6h-32.6V66.9h32.6V79.5z"/>
</g>
<polygon class="st0" points="375.9,124.2 360,124.2 340.1,66.9 354.1,66.9 "/>
</svg>
